<svg id="Capa_1" data-name="Capa 1" xmlns="http://www.w3.org/2000/svg" viewBox="0 0 955.58002 1373.66038"><defs><style>.cls-1{fill:#ffaf10;}.cls-2,.cls-3{fill:none;stroke:#000;stroke-linecap:round;stroke-miterlimit:10;}.cls-2{stroke-width:15.476px;}.cls-3{stroke-width:18.227px;}</style></defs><title>crecer-en-rencaLOGO</title><path class="cls-1" d="M1472.38818,952.95947c0,263.876-213.91406,477.79-477.79,477.79s-477.79-213.914-477.79-477.79,213.914-477.78991,477.79-477.78991,477.79,213.91394,477.79,477.78991" transform="translate(-516.80817 -232.59389)"/><path d="M701.63092,1199.86658a67.154,67.154,0,0,1-28.901,6.6c-44.376,0-60.307-42.101-60.307-79.877,0-39.826,17.296-93.987,65.312-93.987,12.29,0,24.124,4.096,34.591,10.241,4.325,2.503,9.33,6.599,9.33,12.289,0,8.19195-10.467,12.28894-17.295,12.28894-12.516,0-17.75-9.10394-27.308-9.10394-6.145,0-12.972,9.78595-15.702,14.792-8.648,15.931-12.062,35.274-12.062,53.252,0,15.475,2.277,42.328,15.931,52.113a12.41279,12.41279,0,0,0,7.51,2.503c10.467,0,20.936-11.605,31.631-11.605,7.055,0,17.295,4.323,17.295,12.743,0,9.786-12.515,14.337-20.025,17.751" transform="translate(-516.80817 -232.59389)"/><path d="M850.45514,1195.99774c-19.57,0-46.651-23.895-50.066-23.895-1.592,0-1.82,1.82105-1.82,3.186,0,5.234,2.048,10.241,2.048,15.248,0,8.647-11.15,12.515-18.205,12.515-17.067,0-20.026-13.654-21.164-27.535-2.731-32.77-3.641-65.767-4.324-98.538,0-8.647-3.869-21.164,3.186-28.674,6.827-7.282,36.411-11.15,46.652-11.15,22.984,0,48.472,11.605,48.472,38.004,0,27.536-21.391,48.472-41.645,63.72a3.12987,3.12987,0,0,0,0,5.688c13.882,8.648,27.536,17.979,41.873,25.716,5.917,3.185,10.924,3.641,10.924,14.337,0,8.42-8.649,11.378-15.931,11.378m-43.921-132.218c-2.73,0-12.743.228-12.743,3.642,0,13.654.455,27.763,1.365,41.417,0,1.138.455,2.959,2.048,2.959.683,0,1.365-.683,2.048-1.138,8.876-8.421,18.661-23.213,18.661-35.956,0-7.965-3.642-10.924-11.379-10.924" transform="translate(-516.80817 -232.59389)"/><path d="M901.42383,1180.52289c-.683-8.875-.91-17.75-.91-26.853,0-22.075,1.821-44.376,2.959-66.451.682-15.019.682-27.762,2.048-42.782.682-8.648,9.33-11.151,16.84-11.151h42.555c9.103,0,24.12305-2.048,24.12305,12.516,0,12.061-10.924,12.97095-19.344,12.97095-8.192,0-16.384-1.138-24.578-1.138-2.958,0-5.005,1.367-5.233,4.552-.683,11.15-1.821,25.26-1.821,36.184,0,1.82.911,3.413,2.959,3.413,3.868,0,8.42-2.503,12.971-2.503,6.372,0,16.385,4.55195,16.385,11.834,0,10.695-23.667,17.067-31.632,19.798-2.276.911-2.731,1.821-2.731,4.324,0,8.42-.228,16.612-.228,25.032,0,9.559,0,7.966,9.559,7.966h25.032c8.192,0,15.247,1.138,15.247,12.288,0,11.606-6.827,12.517-15.247,12.517h-45.969c-9.103,0-21.846-.911-22.985-12.517" transform="translate(-516.80817 -232.59389)"/><path d="M1023.168,1125.22412a100.66883,100.66883,0,0,1,18.206-57.803c12.97193-18.433,32.542-27.991,55.07093-27.991,10.24206,0,32.771,2.275,32.771,16.612,0,7.283-10.241,12.062-16.61194,12.062-6.373,0-11.834-3.642-17.979-3.642a9.31778,9.31778,0,0,0-2.50305.228c-22.757,4.552-33.225,41.873-33.225,62.127,0,13.199,5.006,36.411,22.074,36.411,9.786,0,18.433-5.917,27.991-5.917,7.05506,0,17.52308,3.869,17.52308,12.289v.91c-1.366,9.103-10.468,11.378-17.978,13.654-8.875,2.50306-17.978,4.324-27.08093,4.324-38.45911,0-58.258-26.625-58.258-63.264" transform="translate(-516.80817 -232.59389)"/><path d="M1223.88086,1061.73187c-5.91711,0-11.60608-.455-17.52307-.455-3.186,0-5.006,1.59295-5.234,4.779-.45593,4.551-.22693,9.103-.45593,13.654-.227,5.234-.68311,10.696-.68311,15.93,0,1.821.68311,3.641,2.73206,3.641,2.73,0,12.744-7.055,21.619-7.055,7.51,0,17.52294,4.097,17.52294,12.972,0,12.972-28.902,19.571-38.91491,22.52905a5.39845,5.39845,0,0,0-3.641,5.234,380.81148,380.81148,0,0,0,2.5039,39.37c.227,2.50305-.683,5.462,2.958,5.462,5.00708,0,10.24-1.366,15.24707-1.366,7.73694,0,18.88892,3.413,18.88892,12.971,0,13.882-24.1239,14.337-33.68091,14.337-9.55811,0-28.9021,0-35.046-8.192-3.186-4.324-2.958-11.606-3.641-16.84a419.0972,419.0972,0,0,1-3.186-50.748c0-23.667,1.366-47.107,1.594-70.775.227-10.923.682-20.25305,12.97-20.936,14.11-.683,17.751-.455,36.639-.455,6.37195,0,12.744-.228,18.889,2.276,4.55091,1.82,8.647,5.916,8.647,11.15,0,8.875-10.923,12.517-18.205,12.517" transform="translate(-516.80817 -232.59389)"/><path d="M1370.88379,1195.99774c-19.57,0-46.651-23.895-50.06592-23.895-1.592,0-1.82007,1.82105-1.82007,3.186,0,5.234,2.04908,10.241,2.04908,15.248,0,8.647-11.151,12.515-18.20606,12.515-17.067,0-20.026-13.654-21.16394-27.535-2.73108-32.77-3.641-65.767-4.323-98.538,0-8.647-3.87-21.164,3.18494-28.674,6.827-7.282,36.411-11.15,46.652-11.15,22.985,0,48.472,11.605,48.472,38.004,0,27.536-21.391,48.472-41.645,63.72a3.12987,3.12987,0,0,0,0,5.688c13.882,8.648,27.536,17.979,41.873,25.716,5.917,3.185,10.924,3.641,10.924,14.337,0,8.42-8.649,11.378-15.931,11.378m-43.9209-132.218c-2.7301,0-12.743.228-12.743,3.642,0,13.654.455,27.763,1.365,41.417,0,1.138.455,2.959,2.048,2.959.683,0,1.365-.683,2.048-1.138,8.87609-8.421,18.661-23.213,18.661-35.956,0-7.965-3.642-10.924-11.37891-10.924" transform="translate(-516.80817 -232.59389)"/><path d="M585.86444,1600.21729a22.67939,22.67939,0,0,1-7.157-15.654,179.14494,179.14494,0,0,0-2.459-19.455l-2.237-12.076a945.52962,945.52962,0,0,1-9.839-139.092q0-66.636,5.36805-136.858l.893-9.391a126.58877,126.58877,0,0,0,.895-14.759l-.448-4.92a18.92715,18.92715,0,0,1,5.815-13.865,23.05789,23.05789,0,0,1,14.311-6.708l9.39294-.448q46.05909,0,81.398,30.412,27.276,23.712,39.358,54.341a171.11954,171.11954,0,0,1,12.076,63.285q0,44.72855-23.704,85.871-23.71207,41.15391-67.087,62.167c-1.789.601-2.684,1.341-2.684,2.236l1.342,3.131q20.12549,22.36949,49.645,23.704,25.041,0,29.06995-24.599,0-1.341-2.236-2.683-14.75848-7.60051-14.759-20.126,1.34106-21.468,22.809-21.468,37.119,3.13494,37.121,41.146,0,31.311-19.678,49.869-19.68594,18.564-52.775,20.796-35.33551,0-70.217-27.282a58.90651,58.90651,0,0,0,1.341,6.262,7.24971,7.24971,0,0,1,.448,2.013,17.32012,17.32012,0,0,0,.223,2.236,41.53455,41.53455,0,0,1,.224,5.143q0,21.468-21.468,22.809a21.31986,21.31986,0,0,1-14.982-6.037m31.53-113.377q32.64294-12.516,52.775-43.159,20.1255-30.62841,20.126-69.546a116.8536,116.8536,0,0,0-18.56006-63.732q-18.56543-29.289-54.788-38.687l-1.789-.447q-2.6835,0-2.684,4.024l-2.235,40.253q-3.135,41.15406-3.131,91.68506,0,28.176,1.342,56.352a195.73564,195.73564,0,0,0,1.789,25.941Z" transform="translate(-516.80817 -232.59389)"/><path d="M791.36853,1564.213q-12.07644-22.809-15.654-42.934a298.74411,298.74411,0,0,1-4.025-46.961q0-98.38806,48.302-136.41,13.4175-12.075,29.518-12.076a39.81621,39.81621,0,0,1,12.52295,2.237q16.992,5.367,25.716,19.231,8.7225,13.86748,11.629,32.425a232.8949,232.8949,0,0,1,2.907,36.004,364.01377,364.01377,0,0,1-2.683,44.276q-4.026,31.31094-33.544,32.65h-23.257v-.448q-25.4925,0-26.61.448a1.73917,1.73917,0,0,0-1.118,1.789,141.311,141.311,0,0,0,13.417,48.302q6.708,13.869,11.628,13.865a3.59848,3.59848,0,0,0,2.683-1.789l12.524-19.679q8.049-11.17351,18.784-11.182a21.59884,21.59884,0,0,1,14.759,6.038,19.35113,19.35113,0,0,1,6.709,14.983,24.37706,24.37706,0,0,1-3.131,11.629,149.73246,149.73246,0,0,1-22.139,31.53q-12.30606,13.18648-29.295,13.194-29.07742,0-49.643-37.122m65.52106-115.612q.67044-.67044,2.46-26.16394,0-52.32751-9.84-52.327-2.24249,0-4.92,3.131-25.05149,22.368-28.623,73.795a1.79073,1.79073,0,0,0,.895,1.789q.88944.45,20.126.447,19.224,0,19.902-.671" transform="translate(-516.80817 -232.59389)"/><path d="M932.47272,1582.7749a121.77071,121.77071,0,0,1-9.169-28.4,415.53726,415.53726,0,0,1-9.83905-92.133l.447-25.94q0-15.64956,1.342-31.531,1.34253-15.87,6.48505-26.611,5.13592-10.734,17.666-10.734a21.80421,21.80421,0,0,1,14.983,5.815q6.477,5.817,6.484,15.653l-1.341,12.523q-2.682,21.027-2.683,50.539l.447,21.02,8.05-31.755a360.67589,360.67589,0,0,1,15.877-46.065q10.06347-24.153,24.599-41.594,14.5275-17.44355,34.215-17.44305,16.99054,0,29.07007,16.996a79.493,79.493,0,0,1,10.734,36.674q1.34235,15.66,1.34192,31.754a532.06713,532.06713,0,0,1-3.578,61.272q-7.1609,78.273-7.156,85.424,0,10.293-6.038,17.219a19.52838,19.52838,0,0,1-15.43006,6.932q-21.9179-2.232-21.91491-23.704a644.6605,644.6605,0,0,1,4.91992-65.298q4.91565-35.775,6.261-85.423a242.44053,242.44053,0,0,0-1.78894-29.071,3.02018,3.02018,0,0,0-.223-1.565c-.155-.147-.37793-.37-.671-.671a11.89267,11.89267,0,0,0-4.026,4.472v.895a211.98956,211.98956,0,0,0-23.25592,56.353q-10.29456,36.2265-17.443,72.901l-4.025,20.573q-7.15952,36.2265-16.995,47.407-6.26853,6.70948-16.548,6.709-14.76-.45-20.797-13.193" transform="translate(-516.80817 -232.59389)"/><path d="M1120.75879,1582.55121a124.37319,124.37319,0,0,1-22.139-43.383,253.07909,253.07909,0,0,1-8.49707-64.85,288.33334,288.33334,0,0,1,4.473-49.421,229.46366,229.46366,0,0,1,13.417-47.632q8.94158-21.90756,23.03308-35.779a46.44306,46.44306,0,0,1,33.767-13.865q22.80891,0,38.686,21.468,15.86994,21.468,22.13892,50.538,1.782,6.70944,2.907,12.524a104.57813,104.57813,0,0,1,1.566,12.969q0,19.236-21.021,22.363a20.72972,20.72972,0,0,1-13.864-4.92,22.93448,22.93448,0,0,1-7.604-12.97l-1.78894-8.945q-4.02447-25.49248-13.417-42.489-4.02447-6.70651-8.051-6.708a5.11928,5.11928,0,0,0-4.025,2.237,43.20135,43.20135,0,0,0-10.733,15.653q-16.55237,33.99444-16.548,83.188,0,37.12645,10.286,64.403a116.65474,116.65474,0,0,0,6.709,13.864q4.02594,7.161,8.05005,7.156,4.02447,0,9.616-9.392a125.0263,125.0263,0,0,0,8.94494-17.89q3.35414-8.49,8.27405-12.075,4.91547-3.576,13.418-4.025a20.57074,20.57074,0,0,1,14.75806,6.038,18.50277,18.50277,0,0,1,4.92,20.797q-7.61115,25.05153-23.7041,42.487-16.101,17.4435-37.121,17.443-21.468,0-36.45093-18.784" transform="translate(-516.80817 -232.59389)"/><path d="M1406.76953,1597.75714a19.17773,19.17773,0,0,1-13.41809-5.367,23.1418,23.1418,0,0,1-7.15491-13.864q-2.24413-16.542-2.9071-27.059-.672-10.503-.8949-21.915-.23108-11.40449-1.56506-30.636l-.895-.447a346.41167,346.41167,0,0,1-21.02,32.201,130.90345,130.90345,0,0,1-27.73,28.177,57.092,57.092,0,0,1-34.885,11.628q-20.12548,0-32.648-11.628a70.37429,70.37429,0,0,1-18.562-28.848,101.64873,101.64873,0,0,1-6.037-33.766,133.78387,133.78387,0,0,1,27.281-79.162q26.38494-35.32654,72.902-38.017a59.0143,59.0143,0,0,1,17.666,2.46,116.08957,116.08957,0,0,1,16.771,6.933l4.473-25.494q2.23186-12.51453,9.84-17.889a20.765,20.765,0,0,1,12.97-4.473,21.25036,21.25036,0,0,1,14.087,5.815,23.40911,23.40911,0,0,1,6.933,13.417l.447,9.839q-.90144,28.62753-.894,52.775,0,54.12,4.025,103.761l3.131,48.75a22.79716,22.79716,0,0,1-5.36695,14.982,21.84108,21.84108,0,0,1-13.864,7.827Zm-97.5-76.702a72.23943,72.23943,0,0,0,12.97095-13.194q25.93194-31.30046,38.463-73.79495a3.86909,3.86909,0,0,0-1.342-2.684q-8.05041-8.9415-21.021-8.945-17.892,0-31.307,13.865-24.6015,25.05149-24.598,60.378a55.0901,55.0901,0,0,0,3.801,21.244q3.795,9.171,10.063,9.168,5.367,0,12.97009-6.037" transform="translate(-516.80817 -232.59389)"/><path d="M975.64044,1278.2854a10.18105,10.18105,0,0,1,4.28205,6.674,12.78937,12.78937,0,0,1-1.51105,8.437q-7.30792,11.84244-15.866,17.631-8.565,5.79447-12.593,7.051a27.49427,27.49427,0,0,1-23.045-2.645,28.96844,28.96844,0,0,1-13.978-19.014q0-.50106-1.762-11.334,6.798-46.33648,29.718-71.022a35.01952,35.01952,0,0,1,9.319-7.052q11.58-6.045,22.415.126,10.82556,6.174,11.332,19.015.50244,15.111-10.577,27.577-11.085,12.46647-26.193,12.215-5.796-.24747-8.185,1.638-2.397,1.88855-3.4,7.429a56.56177,56.56177,0,0,0-1.008,14.356q.50253,5.04,4.156,6.8,3.64956,1.76394,7.933-1.26a26.67582,26.67582,0,0,0,6.548-5.792,15.308,15.308,0,0,0,2.519-2.644q1.25848-1.635,2.519-3.149,1.25692-1.51044,2.267-2.77a12.59877,12.59877,0,0,1,7.429-4.156,10.17977,10.17977,0,0,1,7.681,1.889m-13.851-52.637a23.30608,23.30608,0,0,0-6.67505,4.66,21.72374,21.72374,0,0,0-4.155,5.414q-1.26306,2.52-3.274,6.8,3.27,3.52955,7.80694-.252,8.058-7.047,6.29706-16.622" transform="translate(-516.80817 -232.59389)"/><path d="M1086.45447,1277.782a12.01163,12.01163,0,0,1,5.163,5.79206,8.27733,8.27733,0,0,1-.126,7.305q-10.578,24.177-29.214,29.71795-11.84253,3.5235-20.149-2.896-8.31153-6.423-8.059-19.01495a58.69177,58.69177,0,0,1,2.51794-13.349q4.02594-13.092,10.578-32.489a22.483,22.483,0,0,0,.25195-12.089,2.82624,2.82624,0,0,0-.882-.50305,3.16638,3.16638,0,0,0-1.13293-.25195q-.756.756-2.51905,2.266-1.764,1.512-3.021,2.771a30.05246,30.05246,0,0,0-2.267,2.519q-14.61,19.14147-27.201,36.518-3.02106,4.2855-8.311,12.467-5.28755,8.187-7.303,10.704a36.722,36.722,0,0,1-5.541,6.799q-5.538,4.782-11.837,1.008-5.538-2.76754-5.289-10.074a20.36875,20.36875,0,0,1,1.259-6.044q12.59555-37.779,23.422-69.763a47.30816,47.30816,0,0,1,3.526-8.06,11.47218,11.47218,0,0,1,5.667-4.785,9.105,9.105,0,0,1,10.2,2.77,10.40121,10.40121,0,0,1,2.141,4.03,10.26445,10.26445,0,0,1,.126,4.785q0,.25341-2.015,8.059,14.604-13.092,15.866-14.104a33.03991,33.03991,0,0,1,16.371-7.807,21.03918,21.03918,0,0,1,9.44507.126,17.045,17.045,0,0,1,7.68091,4.282,20.6038,20.6038,0,0,1,5.037,8.185q3.77709,9.822.504,21.911-1.00946,4.28548-9.318,30.474-.50849,1.26452-1.76294,4.911a56.267,56.267,0,0,0-1.76306,5.919q0,.25352-.756,5.792a7.27658,7.27658,0,0,0,1.76294.252,5.14925,5.14925,0,0,0,1.259-.126,4.80975,4.80975,0,0,0,1.00806-.377,7.8156,7.8156,0,0,0,.881-.504,5.97027,5.97027,0,0,0,.881-.756,6.18281,6.18281,0,0,0,.756-.881c.165-.252.37805-.544.629-.882a7.675,7.675,0,0,1,.63-.756q1.25847-1.758,3.652-5.288,2.391-3.5235,3.652-5.289a12.05582,12.05582,0,0,1,6.4231-4.03,9.60391,9.60391,0,0,1,7.177.756" transform="translate(-516.80817 -232.59389)"/><line class="cls-2" x1="658.35553" y1="85.82982" x2="658.35553" y2="661.18882"/><path class="cls-2" d="M941.52039,911.28076v-198.648s32.937-103.956,137.922-85.42895c0,0,38.08191,137.9209-129.688,148.214" transform="translate(-516.80817 -232.59389)"/><path class="cls-2" d="M941.52039,721.89587s-17.497-106.32092-142.039-96.90393c0,0-21.614,76.319,41.171,124.694" transform="translate(-516.80817 -232.59389)"/><path class="cls-2" d="M861.23767,692.39026l73.421,75.74609c-28.819,11.93091-66.559-2.32507-68.618,0" transform="translate(-516.80817 -232.59389)"/><line class="cls-2" x1="504.85254" y1="459.79637" x2="432.2605" y2="535.54246"/><path class="cls-2" d="M781.64111,927.06287v-110.475s-9.606-91.947-108.416-80.282c0,0-24.016,109.102,98.81,113.219" transform="translate(-516.80817 -232.59389)"/><line class="cls-2" x1="201.70465" y1="548.99937" x2="257.97162" y2="607.32444"/><path class="cls-2" d="M985.3645,416.547s-36.296,198.64807,179.163,189.557C1164.52747,606.104,1204.18347,388.41406,985.3645,416.547Z" transform="translate(-516.80817 -232.59389)"/><path class="cls-2" d="M1365.023,426.8313s-198.64807-36.2959-189.556,179.16308C1175.46692,605.99438,1393.15588,645.65039,1365.023,426.8313Z" transform="translate(-516.80817 -232.59389)"/><line class="cls-2" x1="786.32758" y1="245.02293" x2="666.58954" y2="364.76097"/><line class="cls-2" x1="527.63885" y1="245.02293" x2="643.60284" y2="360.98704"/><line class="cls-2" x1="518.71844" y1="294.42772" x2="566.34637" y2="294.42772"/><line class="cls-2" x1="599.00128" y1="260.25572" x2="599.00128" y2="307.88377"/><line class="cls-2" x1="714.27899" y1="260.25572" x2="714.27899" y2="307.88377"/><line class="cls-2" x1="790.24249" y1="294.42772" x2="742.61444" y2="294.42772"/><line class="cls-2" x1="696.16742" y1="121.98948" x2="663.39337" y2="156.54759"/><line class="cls-2" x1="620.34161" y1="156.54796" x2="654.8996" y2="189.322"/><path class="cls-2" d="M1114.437,437.13232s-54.551-111.16088,60.72693-195.55993c0,0,40.141,19.212,55.923,55.23694" transform="translate(-516.80817 -232.59389)"/><path class="cls-2" d="M1245.15381,333.51965s23.33,63.12806-27.306,132.921" transform="translate(-516.80817 -232.59389)"/><path class="cls-2" d="M736.01031,972.6936s5.146-38.4259,45.631-42.543c0,0,39.455-2.059,47.003,45.631" transform="translate(-516.80817 -232.59389)"/><path class="cls-3" d="M885.25378,973.37976s10.293-50.09094,56.267-53.865c0,0,52.149-3.08789,59.697,57.982" transform="translate(-516.80817 -232.59389)"/><path class="cls-3" d="M1099.34119,977.49683s7.548-68.61792,75.823-70.67591c0,0,67.245.68592,74.45,73.421" transform="translate(-516.80817 -232.59389)"/><line class="cls-3" x1="165.33722" y1="747.64769" x2="790.24225" y2="747.64769"/></svg>