<svg id="Capa_1" data-name="Capa 1" xmlns="http://www.w3.org/2000/svg" viewBox="0 0 1448.34277 908.40601"><defs><style>.cls-1{fill:#ffaf10;}.cls-2,.cls-3{fill:none;stroke:#000;stroke-linecap:round;stroke-miterlimit:10;}.cls-2{stroke-width:13.111px;}.cls-3{stroke-width:15.442px;}</style></defs><title>crecer-en-rencaLOGO-hor</title><path class="cls-1" d="M1132.16211,975.78137c0,250.849-203.353,454.203-454.203,454.203-250.849,0-454.202-203.354-454.202-454.203s203.353-454.203,454.202-454.203c250.85,0,454.203,203.354,454.203,454.203" transform="translate(-223.75708 -521.57837)"/><path d="M1056.13306,845.52a56.87876,56.87876,0,0,1-24.48511,5.59106c-37.59491,0-51.08991-35.667-51.08991-67.671,0-33.739,14.652-79.624,55.332-79.624,10.411,0,20.43494,3.47009,29.30494,8.676,3.66308,2.12,7.904,5.59,7.904,10.41,0,6.94092-8.868,10.411-14.653,10.411-10.603,0-15.03808-7.712-23.135-7.712-5.20508,0-10.99,8.291-13.303,12.532-7.32605,13.495-10.218,29.88305-10.218,45.115,0,13.109,1.928,35.859,13.496,44.149a10.51591,10.51591,0,0,0,6.36194,2.121c8.869,0,17.73706-9.833,26.79809-9.833,5.97693,0,14.653,3.663,14.653,10.797,0,8.29-10.604,12.145-16.96594,15.038" transform="translate(-223.75708 -521.57837)"/><path d="M1182.218,842.243c-16.58008,0-39.5221-20.244-42.415-20.244-1.35,0-1.542,1.54309-1.542,2.6991,0,4.434,1.735,8.6759,1.735,12.918,0,7.32593-9.447,10.603-15.42395,10.603-14.4591,0-16.96509-11.56812-17.92908-23.328-2.314-27.76306-3.085-55.718-3.663-83.4801,0-7.3269-3.278-17.92993,2.699-24.292,5.783-6.16992,30.847-9.448,39.522-9.448,19.473,0,41.066,9.833,41.066,32.198,0,23.328-18.123,41.06409-35.281,53.98205a2.65154,2.65154,0,0,0,0,4.819c11.76,7.327,23.328,15.23206,35.473,21.787,5.01294,2.699,9.255,3.08508,9.255,12.146,0,7.13305-7.326,9.64-13.496,9.64m-37.209-112.014c-2.31311,0-10.79712.192-10.79712,3.08411,0,11.568.38611,23.521,1.15711,35.089,0,.964.385,2.507,1.735,2.507.579,0,1.157-.579,1.735-.965,7.52-7.133,15.80994-19.665,15.80994-30.46106,0-6.74792-3.085-9.254-9.6399-9.254" transform="translate(-223.75708 -521.57837)"/><path d="M1225.40063,829.13232c-.578-7.51989-.77111-15.038-.77111-22.75,0-18.70092,1.54211-37.595,2.5061-56.29589.578-12.7251.578-23.52,1.736-36.245.578-7.326,7.90405-9.447,14.266-9.447h36.053c7.712,0,20.437-1.73608,20.437,10.603,0,10.219-9.254,10.98889-16.38794,10.98889-6.941,0-13.8811-.96289-20.822-.96289-2.506,0-4.24206,1.157-4.43408,3.85595-.579,9.44605-1.543,21.39905-1.543,30.65394,0,1.54211.772,2.89209,2.50708,2.89209,3.277,0,7.13294-2.1211,10.98889-2.1211,5.399,0,13.88111,3.85608,13.88111,10.025,0,9.062-20.051,14.46008-26.7981,16.774-1.92895.771-2.314,1.542-2.314,3.663,0,7.134-.193,14.074-.193,21.207,0,8.097,0,6.74805,8.098,6.74805h21.207c6.93994,0,12.917.964,12.917,10.41088,0,9.832-5.78308,10.604-12.917,10.604h-38.94409c-7.71192,0-18.50892-.772-19.47291-10.604" transform="translate(-223.75708 -521.57837)"/><path d="M1328.54419,782.28271a85.27981,85.27981,0,0,1,15.423-48.97c10.989-15.616,27.57-23.714,46.656-23.714,8.6759,0,27.76294,1.92908,27.76294,14.07508,0,6.16992-8.676,10.21789-14.074,10.21789s-10.025-3.085-15.231-3.085a7.90687,7.90687,0,0,0-2.1211.193c-19.27893,3.85607-28.147,35.474-28.147,52.633,0,11.182,4.241,30.84693,18.701,30.84693,8.28992,0,15.616-5.012,23.714-5.012,5.976,0,14.844,3.277,14.844,10.411v.77c-1.156,7.71192-8.868,9.64-15.23,11.569a85.12083,85.12083,0,0,1-22.943,3.663c-32.583,0-49.355-22.558-49.355-53.598" transform="translate(-223.75708 -521.57837)"/><path d="M1498.58813,728.49365c-5.01306,0-9.833-.386-14.84606-.386-2.699,0-4.241,1.35009-4.433,4.04907-.386,3.856-.194,7.71191-.386,11.567-.193,4.43494-.578,9.062-.578,13.49695,0,1.542.578,3.084,2.313,3.084,2.314,0,10.796-5.97693,18.316-5.97693,6.36194,0,14.844,3.471,14.844,10.989,0,10.99-24.484,16.58094-32.967,19.08692a4.57492,4.57492,0,0,0-3.085,4.43506,322.67314,322.67314,0,0,0,2.121,33.3529c.192,2.12012-.578,4.62708,2.506,4.62708,4.24206,0,8.675-1.157,12.918-1.157,6.55407,0,16.00207,2.893,16.00207,10.989,0,11.761-20.437,12.147-28.535,12.147-8.096,0-24.484,0-29.68995-6.941-2.69909-3.663-2.5061-9.833-3.0841-14.266a355.09624,355.09624,0,0,1-2.699-42.993c0-20.05091,1.156-39.90992,1.349-59.96.193-9.254.579-17.15894,10.99-17.738,11.953-.578,15.03809-.38489,31.04-.38489,5.397,0,10.796-.19311,16.002,1.928,3.855,1.542,7.326,5.01294,7.326,9.447,0,7.51892-9.255,10.60388-15.42395,10.60388" transform="translate(-223.75708 -521.57837)"/><path d="M1623.13013,842.243c-16.58008,0-39.5221-20.244-42.415-20.244-1.35,0-1.542,1.54309-1.542,2.6991,0,4.434,1.735,8.6759,1.735,12.918,0,7.32593-9.447,10.603-15.42395,10.603-14.45911,0-16.96509-11.56812-17.92908-23.328-2.314-27.76306-3.085-55.718-3.663-83.4801,0-7.3269-3.278-17.92993,2.699-24.292,5.783-6.16992,30.84705-9.448,39.522-9.448,19.473,0,41.066,9.833,41.066,32.198,0,23.328-18.12305,41.06409-35.281,53.98205a2.65154,2.65154,0,0,0,0,4.819c11.76,7.327,23.328,15.23206,35.473,21.787,5.01294,2.699,9.255,3.08508,9.255,12.146,0,7.13305-7.326,9.64-13.496,9.64m-37.209-112.014c-2.31311,0-10.79712.192-10.79712,3.08411,0,11.568.38611,23.521,1.15711,35.089,0,.964.385,2.507,1.735,2.507.579,0,1.157-.579,1.735-.965,7.52-7.133,15.80994-19.665,15.80994-30.46106,0-6.74792-3.085-9.254-9.6399-9.254" transform="translate(-223.75708 -521.57837)"/><path d="M958.05676,1184.69989a19.211,19.211,0,0,1-6.062-13.262,151.99369,151.99369,0,0,0-2.084-16.48206l-1.895-10.231a801.00121,801.00121,0,0,1-8.336-117.841q0-56.454,4.547-115.94592l.758-7.957a107.45827,107.45827,0,0,0,.758-12.504l-.379-4.168a16.02526,16.02526,0,0,1,4.926-11.746,19.53529,19.53529,0,0,1,12.125-5.68408l7.957-.37793q39.021,0,68.961,25.76489,23.10737,20.08814,33.344,46.03711a144.97788,144.97788,0,0,1,10.23095,53.6159q0,37.8945-20.082,72.75-20.08941,34.8675-56.83593,52.669c-1.517.509-2.275,1.137-2.275,1.895l1.138,2.652q17.05052,18.951,42.059,20.082,21.21442,0,24.629-20.84c0-.757-.634-1.515-1.895-2.273q-12.50409-6.43945-12.504-17.052,1.13691-18.1875,19.324-18.187,31.446,2.65494,31.45007,34.86,0,26.52594-16.672,42.248-16.67852,15.729-44.71106,17.619-29.937,0-59.49-23.113a50.324,50.324,0,0,0,1.137,5.305,6.14517,6.14517,0,0,1,.379,1.705,14.65984,14.65984,0,0,0,.19,1.894,35.14714,35.14714,0,0,1,.189,4.358q0,18.1875-18.188,19.324a18.06253,18.06253,0,0,1-12.693-5.115m26.713-96.054q27.65543-10.602,44.71191-36.564,17.05059-25.95,17.051-58.92a99.00068,99.00068,0,0,0-15.725-53.99506q-15.72748-24.81133-46.417-32.776l-1.516-.37891q-2.27253,0-2.273,3.40992l-1.894,34.102q-2.655,34.866-2.653,77.677,0,23.871,1.137,47.742a166.01429,166.01429,0,0,0,1.516,21.976Z" transform="translate(-223.75708 -521.57837)"/><path d="M1132.161,1154.19751q-10.22993-19.3245-13.261-36.37494a253.17815,253.17815,0,0,1-3.411-39.786q0-83.35354,40.922-115.567,11.367-10.23156,25.009-10.23107a33.74719,33.74719,0,0,1,10.609,1.895q14.39557,4.54651,21.788,16.293a71.994,71.994,0,0,1,9.85107,27.471,197.33157,197.33157,0,0,1,2.463,30.502,308.38592,308.38592,0,0,1-2.27307,37.512q-3.41088,26.5275-28.418,27.66h-19.70495v-.379q-21.59711,0-22.54407.379a1.47563,1.47563,0,0,0-.948,1.516,119.76638,119.76638,0,0,0,11.36707,40.923q5.68486,11.748,9.85193,11.746a3.04884,3.04884,0,0,0,2.27307-1.516l10.611-16.672q6.8205-9.46645,15.91394-9.472a18.29708,18.29708,0,0,1,12.504,5.115,16.3884,16.3884,0,0,1,5.683,12.693,20.65208,20.65208,0,0,1-2.652,9.852,126.90551,126.90551,0,0,1-18.756,26.713q-10.42658,11.172-24.819,11.177-24.63446,0-42.05908-31.449m55.51111-97.948q.56837-.56846,2.084-22.166,0-44.3325-8.33606-44.332c-1.26794,0-2.65295.888-4.16894,2.652q-21.22357,18.951-24.25,62.52a1.51689,1.51689,0,0,0,.75793,1.515q.756.3825,17.051.379,16.287,0,16.86206-.56806" transform="translate(-223.75708 -521.57837)"/><path d="M1251.7063,1169.9223a103.17094,103.17094,0,0,1-7.76807-24.061,352.02212,352.02212,0,0,1-8.33594-78.055l.37891-21.977q0-13.25858,1.13709-26.713,1.1369-13.446,5.49389-22.545,4.35315-9.093,14.967-9.093a18.46949,18.46949,0,0,1,12.693,4.925q5.49,4.929,5.495,13.262l-1.137,10.61a344.54322,344.54322,0,0,0-2.274,42.816l.379,17.809,6.821-26.903a305.28647,305.28647,0,0,1,13.45093-39.027,136.68562,136.68562,0,0,1,20.84107-35.238q12.30742-14.77937,28.986-14.77893,14.39556,0,24.629,14.39892a67.33238,67.33238,0,0,1,9.094,31.07105q1.13544,13.26745,1.136,26.902a450.743,450.743,0,0,1-3.031,51.91q-6.06591,66.312-6.062,72.373a21.40751,21.40751,0,0,1-5.116,14.587,16.5474,16.5474,0,0,1-13.072,5.873q-18.57-1.89-18.566-20.082a546.05593,546.05593,0,0,1,4.16809-55.321q4.164-30.309,5.304-72.371a205.50363,205.50363,0,0,0-1.515-24.629,2.55169,2.55169,0,0,0-.18994-1.326q-.19647-.1875-.568-.56806a10.06078,10.06078,0,0,0-3.41,3.789v.758a179.554,179.554,0,0,0-19.703,47.742q-8.72259,30.6915-14.778,61.762l-3.411,17.43q-6.06463,30.6915-14.39808,40.164-5.30986,5.6835-14.02,5.684-12.50391-.3825-17.6189-11.178" transform="translate(-223.75708 -521.57837)"/><path d="M1411.22388,1169.73279a105.36275,105.36275,0,0,1-18.75611-36.754,214.367,214.367,0,0,1-7.199-54.942,244.26729,244.26729,0,0,1,3.78906-41.869,194.49152,194.49152,0,0,1,11.36694-40.354q7.57507-18.56094,19.514-30.31293a39.34756,39.34756,0,0,1,28.60694-11.746q19.326,0,32.7771,18.187,13.44433,18.18888,18.75488,42.8169,1.51062,5.6835,2.463,10.61005a88.5511,88.5511,0,0,1,1.327,10.988q0,16.296-17.809,18.945a17.56188,17.56188,0,0,1-11.746-4.168,19.41926,19.41926,0,0,1-6.442-10.988l-1.515-7.578q-3.41106-21.597-11.36706-35.996-3.41089-5.6835-6.8219-5.684a4.33785,4.33785,0,0,0-3.41,1.895,36.63026,36.63026,0,0,0-9.094,13.262q-14.02056,28.8-14.019,70.476,0,31.45651,8.715,54.564a98.89363,98.89363,0,0,0,5.68311,11.746q3.41089,6.06455,6.82092,6.062,3.40961,0,8.147-7.957a105.99927,105.99927,0,0,0,7.578-15.15594q2.84253-7.194,7.01-10.231,4.164-3.02847,11.36706-3.41a17.43553,17.43553,0,0,1,12.504,5.11506,15.67669,15.67669,0,0,1,4.168,17.62q-6.4486,21.22349-20.082,35.996-13.641,14.77653-31.45,14.777-18.1875,0-30.881-15.914" transform="translate(-223.75708 -521.57837)"/><path d="M1653.53381,1182.61523a16.25035,16.25035,0,0,1-11.36792-4.546,19.60914,19.60914,0,0,1-6.062-11.747q-1.90063-14.013-2.463-22.923-.56855-8.89956-.75806-18.567-.195-9.66146-1.32593-25.956l-.75805-.379a293.31576,293.31576,0,0,1-17.808,27.28205,110.956,110.956,0,0,1-23.493,23.87194,48.37506,48.37506,0,0,1-29.55493,9.851q-17.05059,0-27.66-9.851a59.62175,59.62175,0,0,1-15.725-24.44,86.10929,86.10929,0,0,1-5.115-28.608,113.34322,113.34322,0,0,1,23.113-67.067q22.353-29.92794,61.76294-32.207a50.00277,50.00277,0,0,1,14.96594,2.084,98.25966,98.25966,0,0,1,14.20911,5.873l3.78991-21.597q1.89-10.605,8.33509-15.158a17.60443,17.60443,0,0,1,10.989-3.78906,18.008,18.008,0,0,1,11.93494,4.926,19.83022,19.83022,0,0,1,5.873,11.368l.37891,8.336q-.76336,24.252-.75793,44.711,0,45.852,3.411,87.907l2.652,41.301a19.32051,19.32051,0,0,1-4.547,12.694,18.499,18.499,0,0,1-11.746,6.63Zm-82.6029-64.98205a61.15029,61.15029,0,0,0,10.98889-11.179q21.97064-26.5155,32.58606-62.519a3.276,3.276,0,0,0-1.137-2.274q-6.819-7.57351-17.80811-7.578-15.16039,0-26.5249,11.746-20.84106,21.225-20.839,51.153a46.68709,46.68709,0,0,0,3.22,17.999q3.21588,7.76853,8.526,7.767,4.54651,0,10.988-5.115" transform="translate(-223.75708 -521.57837)"/><path d="M1288.27856,911.95813a8.63045,8.63045,0,0,1,3.62793,5.65393,10.83746,10.83746,0,0,1-1.281,7.14807q-6.19042,10.032-13.442,14.93591-7.25536,4.91107-10.66894,5.974a23.28983,23.28983,0,0,1-19.52295-2.24,24.53965,24.53965,0,0,1-11.843-16.11q0-.42444-1.493-9.601,5.76141-39.258,25.178-60.171a29.66336,29.66336,0,0,1,7.895-5.974q9.81152-5.12256,18.99.106,9.171,5.23206,9.601,16.11.42609,12.80255-8.96094,23.364-9.39148,10.56153-22.191,10.348-4.91089-.21-6.934,1.387-2.031,1.60051-2.881,6.295a47.92772,47.92772,0,0,0-.854,12.162q.4259,4.27058,3.521,5.761,3.09156,1.49561,6.72095-1.067a22.61841,22.61841,0,0,0,5.54809-4.907,13.00376,13.00376,0,0,0,2.13392-2.241q1.06512-1.38446,2.134-2.667c.709-.854,1.35-1.63306,1.92-2.347a10.68006,10.68006,0,0,1,6.29395-3.521,8.62354,8.62354,0,0,1,6.508,1.60107m-11.735-44.59509a19.74134,19.74134,0,0,0-5.655,3.94812,18.3776,18.3776,0,0,0-3.52,4.58691q-1.06951,2.13446-2.774,5.761,2.77058,2.98956,6.614-.214,6.82653-5.97,5.33508-14.082" transform="translate(-223.75708 -521.57837)"/><path d="M1382.16077,911.531a10.179,10.179,0,0,1,4.375,4.9071,7.01674,7.01674,0,0,1-.10706,6.189q-8.96246,20.48253-24.751,25.177-10.03362,2.98644-17.071-2.454-7.041-5.44062-6.827-16.109a49.73665,49.73665,0,0,1,2.13306-11.30908q3.41107-11.09235,8.962-27.52491a19.0399,19.0399,0,0,0,.21289-10.24206,2.40218,2.40218,0,0,0-.746-.426,2.68885,2.68885,0,0,0-.96093-.21289c-.426.42591-1.14,1.06592-2.134,1.91895q-1.494,1.281-2.55993,2.348a25.59121,25.59121,0,0,0-1.92,2.13294q-12.37811,16.218-23.045,30.93908-2.5589,3.63135-7.041,10.562-4.4804,6.93587-6.187,9.068a31.126,31.126,0,0,1-4.694,5.761,7.86741,7.86741,0,0,1-10.02893.854q-4.69061-2.34613-4.48108-8.535a17.26677,17.26677,0,0,1,1.067-5.121q10.671-32.00555,19.844-59.104a40.06915,40.06915,0,0,1,2.98609-6.828,9.73113,9.73113,0,0,1,4.802-4.05407,7.71337,7.71337,0,0,1,8.641,2.348,8.81135,8.81135,0,0,1,1.814,3.41309,8.68689,8.68689,0,0,1,.10693,4.05395q0,.21606-1.70691,6.828,12.37188-11.09106,13.442-11.949a27.9889,27.9889,0,0,1,13.86889-6.614,17.82993,17.82993,0,0,1,8.00208.106,14.44872,14.44872,0,0,1,6.507,3.62805,17.44592,17.44592,0,0,1,4.26806,6.93494q3.19941,8.3205.427,18.563-.85509,3.63153-7.895,25.818-.43048,1.06953-1.493,4.16a47.61246,47.61246,0,0,0-1.494,5.015q0,.21443-.64,4.907a6.17,6.17,0,0,0,1.493.214,4.39978,4.39978,0,0,0,1.067-.10693,4.07614,4.07614,0,0,0,.854-.32007,6.42911,6.42911,0,0,0,.746-.427,5.02471,5.02471,0,0,0,.74695-.64,5.17966,5.17966,0,0,0,.64-.74694c.14-.213.32007-.46.534-.74707a6.46384,6.46384,0,0,1,.533-.6399q1.06659-1.48956,3.094-4.4801,2.025-2.98646,3.094-4.481a10.21421,10.21421,0,0,1,5.441-3.41394,8.13553,8.13553,0,0,1,6.08106.6399" transform="translate(-223.75708 -521.57837)"/><line class="cls-2" x1="512.45709" y1="105.86011" x2="512.45709" y2="593.30914"/><path class="cls-2" d="M538.26978,1129.71149v-168.296s27.904-88.073,116.848-72.376c0,0,32.264,116.848-109.872,125.568" transform="translate(-223.75708 -521.57837)"/><path class="cls-2" d="M538.26978,969.26318s-14.824-90.07592-120.336-82.0979c0,0-18.312,64.658,34.88,105.64191" transform="translate(-223.75708 -521.57837)"/><path class="cls-2" d="M470.2536,944.26587l62.20294,64.173c-24.416,10.108-56.38995-1.97-58.134,0" transform="translate(-223.75708 -521.57837)"/><line class="cls-2" x1="382.4082" y1="422.6875" x2="320.90717" y2="486.86053"/><path class="cls-2" d="M402.81879,1143.08228v-93.595s-8.139-77.89892-91.851-68.016c0,0-20.347,92.432,83.712,95.92" transform="translate(-223.75708 -521.57837)"/><line class="cls-2" x1="125.57892" y1="498.26105" x2="173.24789" y2="547.67407"/><path class="cls-2" d="M575.41492,710.56934s-30.75,168.296,151.789,160.594C727.20392,871.16333,760.79987,686.73438,575.41492,710.56934Z" transform="translate(-223.75708 -521.57837)"/><path class="cls-2" d="M897.06451,719.28223s-168.296-30.75-160.594,151.78906C736.47052,871.07129,920.89948,904.66724,897.06451,719.28223Z" transform="translate(-223.75708 -521.57837)"/><line class="cls-2" x1="620.87604" y1="240.72974" x2="519.43298" y2="342.17285"/><line class="cls-2" x1="401.71289" y1="240.72974" x2="499.95886" y2="338.97485"/><line class="cls-2" x1="394.15552" y1="282.58582" x2="434.50647" y2="282.58582"/><line class="cls-2" x1="462.17169" y1="253.63513" x2="462.17169" y2="293.98621"/><line class="cls-2" x1="559.83594" y1="253.63513" x2="559.83594" y2="293.98621"/><line class="cls-2" x1="624.19275" y1="282.58582" x2="583.84174" y2="282.58582"/><line class="cls-2" x1="544.49164" y1="136.49487" x2="516.72461" y2="165.77295"/><line class="cls-2" x1="480.2514" y1="165.77307" x2="509.52936" y2="193.54016"/><path class="cls-2" d="M684.76611,728.0094s-46.216-94.1759,51.448-165.67993c0,0,34.008,16.277,47.379,46.797" transform="translate(-223.75708 -521.57837)"/><path class="cls-2" d="M795.51031,640.22778s19.765,53.483-23.134,112.61206" transform="translate(-223.75708 -521.57837)"/><path class="cls-2" d="M364.16,1181.741s4.36-32.555,38.659-36.043c0,0,33.427-1.744,39.821,38.659" transform="translate(-223.75708 -521.57837)"/><path class="cls-3" d="M490.60031,1182.32233s8.72-42.437,47.669-45.63495c0,0,44.182-2.616,50.577,49.123" transform="translate(-223.75708 -521.57837)"/><path class="cls-3" d="M671.97668,1185.81042s6.395-58.133,64.237-59.877c0,0,56.971.581,63.075,62.202" transform="translate(-223.75708 -521.57837)"/><line class="cls-3" x1="94.76822" y1="666.55731" x2="624.19318" y2="666.55731"/></svg>