<?xml version="1.0" encoding="utf-8"?>
<!-- Generator: Adobe Illustrator 24.0.2, SVG Export Plug-In . SVG Version: 6.00 Build 0)  -->
<svg version="1.0" id="Capa_1" xmlns="http://www.w3.org/2000/svg" xmlns:xlink="http://www.w3.org/1999/xlink" x="0px" y="0px"
	 viewBox="0 0 3054.54 232.29" style="enable-background:new 0 0 3054.54 232.29;" xml:space="preserve">
<style type="text/css">
	.st0{fill:none;}
	.st1{fill:#008CFF;}
	.st2{font-family:'Montserrat-Bold';}
	.st3{font-size:180px;}
	.st4{fill:#FF8500;}
</style>
<rect x="1242.87" y="48.83" class="st0" width="1778.1" height="159.92"/>
<text transform="matrix(1 0 0 1 1242.8694 182.3897)" class="st1 st2 st3">mi primer </text>
<g>
	<polygon class="st1" points="1091.79,55.77 1088.76,55.77 1088.76,60.19 1091.24,60.19 	"/>
	<polygon class="st1" points="1098.86,55.77 1094.85,55.77 1094.3,60.19 1098.31,60.19 	"/>
	<path class="st1" d="M1017.44,127.22v63.39c0,6.63,5.37,12,11.99,12h100.57c6.62,0,12-5.37,12-12v-63.39c0-6.62-5.38-12-12-12
		h-100.57C1022.81,115.22,1017.44,120.6,1017.44,127.22z M1043.21,195.77h-5.91c-5.58,0-10.11-4.52-10.11-10.12
		c0-5.58,4.53-10.11,10.11-10.11h5.91V195.77z M1122.14,195.77h-5.91v-20.24h5.91c5.58,0,10.12,4.53,10.12,10.11
		C1132.26,191.25,1127.73,195.77,1122.14,195.77z M1113.96,127.87c10.17,0,18.4,8.24,18.4,18.4c0,10.16-8.23,18.38-18.4,18.38
		c-10.16,0-18.4-8.22-18.4-18.38C1095.56,136.1,1103.79,127.87,1113.96,127.87z M1092.54,175.53h21.73v20.24h-21.73V175.53z
		 M1068.85,175.53h21.74v20.24h-21.74V175.53z M1066.91,195.77h-21.75v-20.24h21.75V195.77z M1045.48,127.87
		c10.16,0,18.41,8.24,18.41,18.4c0,10.16-8.25,18.38-18.41,18.38c-10.15,0-18.4-8.22-18.4-18.38
		C1027.07,136.1,1035.32,127.87,1045.48,127.87z"/>
	<path class="st1" d="M1208.13,23.47H952.21c-8.91,0-16.12,7.22-16.12,16.12v156.66c0,8.91,7.22,16.12,16.12,16.12h63.04
		c-6.04-1.89-10.42-7.52-10.42-14.19v0.72h-19.5c-3.38,0-6.11-4.91-6.11-10.98v-58.05c0-6.06,2.74-10.98,6.11-10.98h19.5v0.72
		c0-8.22,6.65-14.87,14.86-14.87h15.5v-9.06h41.83V57.34h-10.14v-9.42h21.88v4.88h3.4l0.54-4.36h3.06l-0.54,4.36h4.01l0.54-4.36
		h3.06l-0.54,4.36h3.54l0.03,2.97h-3.93l-0.54,4.42h3.55v2.97h-3.91l-0.54,4.37h-3.08l0.54-4.37h-4.01l-0.54,4.37h-3.06l0.54-4.37
		h-2.11v32.54h35.47v9.06h15.51c7.96,0,14.48,6.27,14.85,14.15h20.14c3.03,0,5.49,4.92,5.49,10.98v58.05
		c0,6.07-2.46,10.98-5.49,10.98h-20.14c-0.3,6.35-4.59,11.65-10.41,13.47h63.95c8.91,0,16.12-7.22,16.12-16.12V39.6
		C1224.26,30.69,1217.04,23.47,1208.13,23.47z"/>
</g>
<text transform="matrix(1 0 0 1 28.0057 182.5328)" class="st4 st2 st3">BLOCKLY</text>
</svg>
